<?xml version="1.0" encoding="UTF-8" standalone="no"?><svg xmlns="http://www.w3.org/2000/svg" xmlns:xlink="http://www.w3.org/1999/xlink" contentScriptType="application/ecmascript" contentStyleType="text/css" height="321px" preserveAspectRatio="none" style="width:330px;height:321px;" version="1.1" viewBox="0 0 330 321" width="330px" zoomAndPan="magnify"><defs><filter height="300%" id="f1joce2jja18dk" width="300%" x="-1" y="-1"><feGaussianBlur result="blurOut" stdDeviation="2.0"/><feColorMatrix in="blurOut" result="blurOut2" type="matrix" values="0 0 0 0 0 0 0 0 0 0 0 0 0 0 0 0 0 0 .4 0"/><feOffset dx="4.0" dy="4.0" in="blurOut2" result="blurOut3"/><feBlend in="SourceGraphic" in2="blurOut3" mode="normal"/></filter></defs><g><!--MD5=[89620f9551f377830f3aec8184dc7e57]
class NamespacedStorage--><rect codeLine="3" fill="#FEFECE" filter="url(#f1joce2jja18dk)" height="216.416" id="NamespacedStorage" style="stroke:#A80036;stroke-width:1.5;" width="309" x="7" y="91"/><ellipse cx="97.75" cy="107" fill="#ADD1B2" rx="11" ry="11" style="stroke:#A80036;stroke-width:1.0;"/><path d="M100.2231,113.1431 Q99.6421,113.4419 99.0029,113.5913 Q98.3638,113.7407 97.6582,113.7407 Q95.1514,113.7407 93.8315,112.0889 Q92.5117,110.437 92.5117,107.3159 Q92.5117,104.1865 93.8315,102.5347 Q95.1514,100.8828 97.6582,100.8828 Q98.3638,100.8828 99.0112,101.0322 Q99.6587,101.1816 100.2231,101.4805 L100.2231,104.2031 Q99.5923,103.6221 98.9988,103.3523 Q98.4053,103.0825 97.7744,103.0825 Q96.4297,103.0825 95.7449,104.1492 Q95.0601,105.2158 95.0601,107.3159 Q95.0601,109.4077 95.7449,110.4744 Q96.4297,111.541 97.7744,111.541 Q98.4053,111.541 98.9988,111.2712 Q99.5923,111.0015 100.2231,110.4204 Z " fill="#000000"/><text fill="#000000" font-family="sans-serif" font-size="12" lengthAdjust="spacingAndGlyphs" textLength="119" x="118.25" y="111.5352">NamespacedStorage</text><line style="stroke:#A80036;stroke-width:1.5;" x1="8" x2="315" y1="123" y2="123"/><rect fill="none" height="6" style="stroke:#C82930;stroke-width:1.0;" width="6" x="15" y="131"/><text fill="#000000" font-family="sans-serif" font-size="11" lengthAdjust="spacingAndGlyphs" textLength="73" x="27" y="137.6348">keys : string[]</text><rect fill="none" height="6" style="stroke:#C82930;stroke-width:1.0;" width="6" x="15" y="143.9551"/><text fill="#000000" font-family="sans-serif" font-size="11" lengthAdjust="spacingAndGlyphs" textLength="101" x="27" y="150.5898">namespace : string</text><rect fill="none" height="6" style="stroke:#C82930;stroke-width:1.0;" width="6" x="15" y="156.9102"/><text fill="#000000" font-family="sans-serif" font-size="11" lengthAdjust="spacingAndGlyphs" text-decoration="underline" textLength="153" x="27" y="163.5449">namespaceSeparator : string</text><rect fill="none" height="6" style="stroke:#C82930;stroke-width:1.0;" width="6" x="15" y="169.8652"/><text fill="#000000" font-family="sans-serif" font-size="11" lengthAdjust="spacingAndGlyphs" text-decoration="underline" textLength="215" x="27" y="176.5">proxyHandler : ProxyHandler&lt;Storage&gt;</text><rect fill="none" height="6" style="stroke:#C82930;stroke-width:1.0;" width="6" x="15" y="182.8203"/><text fill="#000000" font-family="sans-serif" font-size="11" lengthAdjust="spacingAndGlyphs" textLength="91" x="27" y="189.4551">storage : Storage</text><line style="stroke:#A80036;stroke-width:1.5;" x1="8" x2="315" y1="195.7754" y2="195.7754"/><ellipse cx="18" cy="206.7754" fill="#84BE84" rx="3" ry="3" style="stroke:#038048;stroke-width:1.0;"/><text fill="#000000" font-family="sans-serif" font-size="11" lengthAdjust="spacingAndGlyphs" textLength="66" x="27" y="210.4102">clear() : void</text><ellipse cx="18" cy="219.7305" fill="#84BE84" rx="3" ry="3" style="stroke:#038048;stroke-width:1.0;"/><text fill="#000000" font-family="sans-serif" font-size="11" lengthAdjust="spacingAndGlyphs" text-decoration="underline" textLength="283" x="27" y="223.3652">create(storage: Storage, namespace: string) : Storage</text><ellipse cx="18" cy="232.6855" fill="#84BE84" rx="3" ry="3" style="stroke:#038048;stroke-width:1.0;"/><text fill="#000000" font-family="sans-serif" font-size="11" lengthAdjust="spacingAndGlyphs" textLength="175" x="27" y="236.3203">getItem(key: string) : null | string</text><ellipse cx="18" cy="245.6406" fill="#84BE84" rx="3" ry="3" style="stroke:#038048;stroke-width:1.0;"/><text fill="#000000" font-family="sans-serif" font-size="11" lengthAdjust="spacingAndGlyphs" textLength="175" x="27" y="249.2754">key(index: number) : null | string</text><ellipse cx="18" cy="258.5957" fill="#84BE84" rx="3" ry="3" style="stroke:#038048;stroke-width:1.0;"/><text fill="#000000" font-family="sans-serif" font-size="11" lengthAdjust="spacingAndGlyphs" textLength="159" x="27" y="262.2305">removeItem(key: string) : void</text><ellipse cx="18" cy="271.5508" fill="#84BE84" rx="3" ry="3" style="stroke:#038048;stroke-width:1.0;"/><text fill="#000000" font-family="sans-serif" font-size="11" lengthAdjust="spacingAndGlyphs" textLength="207" x="27" y="275.1855">setItem(key: string, value: string) : void</text><rect fill="#F24D5C" height="6" style="stroke:#C82930;stroke-width:1.0;" width="6" x="15" y="281.5059"/><text fill="#000000" font-family="sans-serif" font-size="11" lengthAdjust="spacingAndGlyphs" textLength="217" x="27" y="288.1406">packNamespacedKey(key: string) : string</text><rect fill="#F24D5C" height="6" style="stroke:#C82930;stroke-width:1.0;" width="6" x="15" y="294.4609"/><text fill="#000000" font-family="sans-serif" font-size="11" lengthAdjust="spacingAndGlyphs" textLength="231" x="27" y="301.0957">unpackNamespacedKey(key: string) : string</text><!--MD5=[11b747870319a085bc745183e08c5f76]
class Storage--><rect codeLine="18" fill="#FEFECE" filter="url(#f1joce2jja18dk)" height="24.1328" id="Storage" style="stroke:#A80036;stroke-width:1.5;" width="49" x="137" y="7"/><text fill="#000000" font-family="sans-serif" font-size="12" lengthAdjust="spacingAndGlyphs" textLength="43" x="140" y="23.6016">Storage</text><!--MD5=[365932671744388a8d478d1d4f793565]
reverse link Storage to NamespacedStorage--><path codeLine="20" d="M161.5,51.2264 C161.5,62.7872 161.5,76.5511 161.5,90.9582 " fill="none" id="Storage-backto-NamespacedStorage" style="stroke:#A80036;stroke-width:1.0;stroke-dasharray:7.0,7.0;"/><polygon fill="none" points="154.5001,51.0898,161.5,31.0898,168.5001,51.0898,154.5001,51.0898" style="stroke:#A80036;stroke-width:1.0;"/><!--MD5=[2cc7d51cc04ccd3b315ad2fe16a90bb8]
@startuml
hide empty methods
hide empty fields
class "NamespacedStorage" {
    -keys : string[]
    -namespace : string
    {static} -namespaceSeparator : string
    {static} -proxyHandler : ProxyHandler<Storage>
    -storage : Storage
    +clear() : void
    {static} +create(storage: Storage, namespace: string) : Storage
    +getItem(key: string) : null | string
    +key(index: number) : null | string
    +removeItem(key: string) : void
    +setItem(key: string, value: string) : void
    -packNamespacedKey(key: string) : string
    -unpackNamespacedKey(key: string) : string
}
class "Storage"
hide "Storage" circle
"Storage" <|.. "NamespacedStorage"
@enduml

PlantUML version 1.2020.26(Mon Dec 21 18:45:07 CET 2020)
(GPL source distribution)
Java Runtime: OpenJDK Runtime Environment
JVM: OpenJDK 64-Bit Server VM
Default Encoding: UTF-8
Language: hu
Country: HU
--></g></svg>