<?xml version="1.0" encoding="UTF-8" standalone="no"?><svg xmlns="http://www.w3.org/2000/svg" xmlns:xlink="http://www.w3.org/1999/xlink" contentScriptType="application/ecmascript" contentStyleType="text/css" height="222px" preserveAspectRatio="none" style="width:626px;height:222px;" version="1.1" viewBox="0 0 626 222" width="626px" zoomAndPan="magnify"><defs><filter height="300%" id="fm2z9musfy3fd" width="300%" x="-1" y="-1"><feGaussianBlur result="blurOut" stdDeviation="2.0"/><feColorMatrix in="blurOut" result="blurOut2" type="matrix" values="0 0 0 0 0 0 0 0 0 0 0 0 0 0 0 0 0 0 .4 0"/><feOffset dx="4.0" dy="4.0" in="blurOut2" result="blurOut3"/><feBlend in="SourceGraphic" in2="blurOut3" mode="normal"/></filter></defs><g><!--MD5=[ee5c66a892280305e517bdc082e1b849]
class StorageProxyHandler--><rect codeLine="3" fill="#FEFECE" filter="url(#fm2z9musfy3fd)" height="117.7305" id="StorageProxyHandler" style="stroke:#A80036;stroke-width:1.5;" width="605" x="7" y="91"/><ellipse cx="244.75" cy="107" fill="#ADD1B2" rx="11" ry="11" style="stroke:#A80036;stroke-width:1.0;"/><path d="M247.2231,113.1431 Q246.6421,113.4419 246.0029,113.5913 Q245.3638,113.7407 244.6582,113.7407 Q242.1514,113.7407 240.8315,112.0889 Q239.5117,110.437 239.5117,107.3159 Q239.5117,104.1865 240.8315,102.5347 Q242.1514,100.8828 244.6582,100.8828 Q245.3638,100.8828 246.0112,101.0322 Q246.6587,101.1816 247.2231,101.4805 L247.2231,104.2031 Q246.5923,103.6221 245.9988,103.3523 Q245.4053,103.0825 244.7744,103.0825 Q243.4297,103.0825 242.7449,104.1492 Q242.0601,105.2158 242.0601,107.3159 Q242.0601,109.4077 242.7449,110.4744 Q243.4297,111.541 244.7744,111.541 Q245.4053,111.541 245.9988,111.2712 Q246.5923,111.0015 247.2231,110.4204 Z " fill="#000000"/><text fill="#000000" font-family="sans-serif" font-size="12" lengthAdjust="spacingAndGlyphs" textLength="121" x="265.25" y="111.5352">StorageProxyHandler</text><line style="stroke:#A80036;stroke-width:1.5;" x1="8" x2="611" y1="123" y2="123"/><ellipse cx="18" cy="134" fill="#84BE84" rx="3" ry="3" style="stroke:#038048;stroke-width:1.0;"/><text fill="#000000" font-family="sans-serif" font-size="11" lengthAdjust="spacingAndGlyphs" textLength="389" x="27" y="137.6348">deleteProperty(storage: Storage, key: string | number | symbol) : boolean</text><ellipse cx="18" cy="146.9551" fill="#84BE84" rx="3" ry="3" style="stroke:#038048;stroke-width:1.0;"/><text fill="#000000" font-family="sans-serif" font-size="11" lengthAdjust="spacingAndGlyphs" textLength="373" x="27" y="150.5898">get(target: Storage, propertyKey: string | number | symbol) : unknown</text><ellipse cx="18" cy="159.9102" fill="#84BE84" rx="3" ry="3" style="stroke:#038048;stroke-width:1.0;"/><text fill="#000000" font-family="sans-serif" font-size="11" lengthAdjust="spacingAndGlyphs" textLength="579" x="27" y="163.5449">getOwnPropertyDescriptor(storage: Storage, key: string | number | symbol) : undefined | PropertyDescriptor</text><ellipse cx="18" cy="172.8652" fill="#84BE84" rx="3" ry="3" style="stroke:#038048;stroke-width:1.0;"/><text fill="#000000" font-family="sans-serif" font-size="11" lengthAdjust="spacingAndGlyphs" textLength="330" x="27" y="176.5">has(storage: Storage, key: string | number | symbol) : boolean</text><ellipse cx="18" cy="185.8203" fill="#84BE84" rx="3" ry="3" style="stroke:#038048;stroke-width:1.0;"/><text fill="#000000" font-family="sans-serif" font-size="11" lengthAdjust="spacingAndGlyphs" textLength="301" x="27" y="189.4551">ownKeys(storage: Storage) : (string | number | symbol)[]</text><ellipse cx="18" cy="198.7754" fill="#84BE84" rx="3" ry="3" style="stroke:#038048;stroke-width:1.0;"/><text fill="#000000" font-family="sans-serif" font-size="11" lengthAdjust="spacingAndGlyphs" textLength="407" x="27" y="202.4102">set(target: Storage, key: string | number | symbol, value: unknown) : boolean</text><!--MD5=[ca738a8500fb85e97fcfcbb2831bb3f8]
class ProxyHandler<Storage>--><rect codeLine="11" fill="#FEFECE" filter="url(#fm2z9musfy3fd)" height="24.1328" id="ProxyHandler&lt;Storage&gt;" style="stroke:#A80036;stroke-width:1.5;" width="147" x="236" y="7"/><text fill="#000000" font-family="sans-serif" font-size="12" lengthAdjust="spacingAndGlyphs" textLength="141" x="239" y="23.6016">ProxyHandler&lt;Storage&gt;</text><!--MD5=[0fe9e1e1b79735f481d8d98415bb414c]
reverse link ProxyHandler<Storage> to StorageProxyHandler--><path codeLine="13" d="M309.5,51.466 C309.5,63.3669 309.5,77.2386 309.5,90.7521 " fill="none" id="ProxyHandler&lt;Storage&gt;-backto-StorageProxyHandler" style="stroke:#A80036;stroke-width:1.0;stroke-dasharray:7.0,7.0;"/><polygon fill="none" points="302.5001,51.0894,309.5,31.0894,316.5001,51.0893,302.5001,51.0894" style="stroke:#A80036;stroke-width:1.0;"/><!--MD5=[2aa3b00a8c64f9e30f033b56ac64bef2]
@startuml
hide empty methods
hide empty fields
class "StorageProxyHandler" {
    +deleteProperty(storage: Storage, key: string | number | symbol) : boolean
    +get(target: Storage, propertyKey: string | number | symbol) : unknown
    +getOwnPropertyDescriptor(storage: Storage, key: string | number | symbol) : undefined | PropertyDescriptor
    +has(storage: Storage, key: string | number | symbol) : boolean
    +ownKeys(storage: Storage) : (string | number | symbol)[]
    +set(target: Storage, key: string | number | symbol, value: unknown) : boolean
}
class "ProxyHandler<Storage>"
hide "ProxyHandler<Storage>" circle
"ProxyHandler<Storage>" <|.. "StorageProxyHandler"
@enduml

PlantUML version 1.2020.26(Mon Dec 21 18:45:07 CET 2020)
(GPL source distribution)
Java Runtime: OpenJDK Runtime Environment
JVM: OpenJDK 64-Bit Server VM
Default Encoding: UTF-8
Language: hu
Country: HU
--></g></svg>